<svg width="64" height="64" viewBox="0 0 64 64" fill="none" xmlns="http://www.w3.org/2000/svg">
    <!-- Background com gradiente -->
    <rect width="64" height="64" rx="16" fill="url(#gradient)" />
    
    <!-- Ícone do foguete -->
    <path d="M32 18L20 30L32 42L44 30L32 18Z" fill="white" fill-opacity="0.2" />
    <path d="M32 22L24 30L32 38L40 30L32 22Z" fill="white" />
    
    <!-- Detalhes do foguete -->
    <circle cx="32" cy="30" r="3" fill="url(#gradient)" />
    <path d="M32 18V14M32 42V46M44 30H48M20 30H16" stroke="white" stroke-width="2" stroke-linecap="round" />
    
    <!-- Chamas -->
    <path d="M32 38L36 44L32 42L28 44L32 38Z" fill="#FFD700" />
    
    <!-- Estrelas -->
    <circle cx="20" cy="20" r="1" fill="white" fill-opacity="0.5" />
    <circle cx="44" cy="44" r="1" fill="white" fill-opacity="0.5" />
    
    <defs>
        <linearGradient id="gradient" x1="0" y1="0" x2="64" y2="64" gradientUnits="userSpaceOnUse">
            <stop stop-color="#6366F1"/>
            <stop offset="1" stop-color="#8B5CF6"/>
        </linearGradient>
    </defs>
</svg>
